<?xml version="1.0" standalone="no"?>
<svg xmlns="http://www.w3.org/2000/svg" xmlns:xlink="http://www.w3.org/1999/xlink" height="1080px" width="1920px">
  <defs>
    <pattern id="doodad" width="16" height="16" viewBox="0 0 40 40" patternUnits="userSpaceOnUse" patternTransform="rotate(135)">
      <rect width="100%" height="100%" fill="rgba(247, 250, 252,1)"/>
      <circle cx="20" cy="20" r="4" fill="rgba(252, 196, 25,1)"/>
      <path d="M19.5 20a 0.5 0.5 0 0 0 1 0a 0.5 0.5 0 0 0-1 0m2 0a-1.5-1.5 0 0 1-3 0a-1.5-1.5 0 0 1 3 0zM19 20a 1 1 0 0 0 2 0a 1 1 0 0 0-2 0m2 0a-1-1 0 0 1-2 0a-1-1 0 0 1 2 0zM18.5 20a 1.5 1.5 0 0 0 3 0a 1.5 1.5 0 0 0-3 0m2 0a-0.5-0.5 0 0 1-1 0a-0.5-0.5 0 0 1 1 0zM18 20a 2 2 0 0 0 4 0a 2 2 0 0 0-4 0m2 0a 0 0 0 0 1 0 0a 0 0 0 0 1 0 0zM17.5 20a 2.5 2.5 0 0 0 5 0a 2.5 2.5 0 0 0-5 0m2 0a 0.5 0.5 0 0 1 1 0a 0.5 0.5 0 0 1-1 0zM17 20a 3 3 0 0 0 6 0a 3 3 0 0 0-6 0m2 0a 1 1 0 0 1 2 0a 1 1 0 0 1-2 0zM16.5 20a 3.5 3.5 0 0 0 7 0a 3.5 3.5 0 0 0-7 0m2 0a 1.5 1.5 0 0 1 3 0a 1.5 1.5 0 0 1-3 0zM16 20a 4 4 0 0 0 8 0a 4 4 0 0 0-8 0m2 0a 2 2 0 0 1 4 0a 2 2 0 0 1-4 0z" fill="rgba(26, 32, 44,1)"/>
    </pattern>
  </defs>
  <rect fill="url(#doodad)" height="200%" width="200%"/>
</svg>
